<svg width="51" height="43" viewBox="0 0 51 43" fill="none" xmlns="http://www.w3.org/2000/svg">
<path d="M50.4964 17.7868V14.9019C50.4964 13.4483 49.1837 12.017 44.5985 11.6163C41.272 11.3279 36.5069 10.9496 36.5069 10.9496C31.2204 10.472 31.4722 8.34999 31.4722 7.50696H19.0426C19.0426 8.34999 19.2809 10.472 13.9854 10.956C13.9854 10.956 9.22934 11.3343 5.89381 11.6228C1.31758 12.0186 0.00494385 13.4547 0.00494385 14.9083V17.7932C0.00494385 19.1395 3.27754 20.6413 3.27754 21.6782V34.6972C3.27754 35.7245 0.00494385 37.2295 0.00494385 38.5758V41.4607C0.00494385 42.0937 0.904008 42.6387 3.27754 42.6387H47.2058C49.5658 42.6387 50.4784 42.0937 50.4784 41.4607V38.5758C50.4784 37.2295 47.2058 35.7293 47.2058 34.6908V21.6718C47.2058 20.6349 50.4964 19.1331 50.4964 17.7868Z" fill="#A1151A"/>
<path d="M31.4632 0.304314H19.0426V7.50695H31.4632V0.304314Z" fill="#D7B344"/>
<path d="M38.849 17.0688H11.6523V35.9666H38.849V17.0688Z" fill="#D7B344"/>
<path d="M38.849 24.3628H11.6523V27.4657H38.849V24.3628Z" fill="white"/>
<path d="M25.2507 22.4844C28.1157 22.4844 30.4383 21.6563 30.4383 20.6349C30.4383 19.6134 28.1157 18.7853 25.2507 18.7853C22.3856 18.7853 20.0631 19.6134 20.0631 20.6349C20.0631 21.6563 22.3856 22.4844 25.2507 22.4844Z" fill="#A1151A"/>
<path d="M33.2523 27.4657H17.249V34.0578H33.2523V27.4657Z" fill="#A1151A"/>
</svg>
