<svg width="21" height="8" viewBox="0 0 21 8" fill="none" xmlns="http://www.w3.org/2000/svg">
<path d="M10.1079 0.761566C7.36302 0.761566 7.01854 0.765842 5.94045 0.783321C4.86446 0.800875 4.13001 0.861563 3.48737 0.950607C2.82262 1.04258 2.25873 1.1656 1.69694 1.36582C1.13473 1.56597 0.789406 1.76686 0.530412 2.00361C0.27984 2.23263 0.109283 2.49437 0.0608531 2.87755C0.0126338 3.26163 0 3.38443 0 4.36234C0 5.34026 0.0122129 5.46261 0.0610639 5.84669C0.110547 6.23002 0.280893 6.49168 0.530623 6.72063C0.788986 6.95746 1.13431 7.15835 1.69631 7.35849C2.25788 7.55879 2.82178 7.68211 3.48611 7.77408C4.12917 7.86313 4.86383 7.92381 5.93961 7.94137C7.0177 7.95885 7.36197 7.96312 10.1067 7.96312C12.8518 7.96312 13.1952 7.95885 14.2733 7.94137C15.3493 7.92381 16.0846 7.86313 16.7277 7.77408C17.3922 7.68211 17.9553 7.55879 18.5168 7.35849C19.079 7.15835 19.4244 6.95746 19.6834 6.7207C19.9318 6.49168 20.1024 6.22995 20.1529 5.84677C20.2014 5.46268 20.214 5.34026 20.214 4.36234C20.214 3.38443 20.2014 3.26171 20.1529 2.87762C20.1024 2.49429 19.9318 2.23263 19.6834 2.00368C19.4244 1.76686 19.079 1.56597 18.5168 1.36582C17.9546 1.16553 17.3924 1.0425 16.727 0.950607C16.0827 0.861563 15.3478 0.800875 14.2719 0.783321C13.1938 0.765842 12.8505 0.761566 10.1048 0.761566H10.1079ZM9.20125 1.41046C9.47035 1.41031 9.77062 1.41046 10.1079 1.41046C12.8065 1.41046 13.1264 1.41391 14.1921 1.43116C15.1775 1.44721 15.7123 1.50588 16.0686 1.55516C16.5403 1.62043 16.8765 1.69844 17.2301 1.82447C17.5838 1.9505 17.8028 2.07052 17.9864 2.23856C18.1248 2.36534 18.2896 2.55588 18.3345 2.90695C18.3829 3.28654 18.3934 3.40056 18.3934 4.36152C18.3934 5.32248 18.3829 5.4365 18.3345 5.81608C18.2894 6.16716 18.1248 6.3577 17.9864 6.48448C17.8032 6.65251 17.5838 6.77217 17.2301 6.89812C16.8763 7.02415 16.5405 7.10216 16.0686 7.16743C15.7127 7.21694 15.1775 7.27545 14.1921 7.2915C13.1266 7.30876 12.8065 7.31251 10.1079 7.31251C7.40913 7.31251 7.08929 7.30876 6.02383 7.2915C5.03839 7.2753 4.50355 7.21664 4.14707 7.16735C3.6754 7.10209 3.3385 7.02407 2.98475 6.89804C2.631 6.77202 2.41202 6.65229 2.2284 6.48418C2.09006 6.3574 1.92519 6.16686 1.88034 5.81578C1.83191 5.4362 1.82223 5.32218 1.82223 4.36062C1.82223 3.39906 1.83191 3.28564 1.88034 2.90605C1.9254 2.55498 2.09006 2.36444 2.2284 2.23751C2.4116 2.06947 2.631 1.94945 2.98475 1.82342C3.3385 1.69739 3.6754 1.61938 4.14707 1.55396C4.50334 1.50445 5.03839 1.44594 6.02383 1.42981C6.95621 1.41481 7.31754 1.41031 9.20125 1.40956V1.41046ZM15.503 2.00834C14.8334 2.00834 14.2902 2.20165 14.2902 2.44028C14.2902 2.67883 14.8334 2.87237 15.503 2.87237C16.1726 2.87237 16.7159 2.67883 16.7159 2.44028C16.7159 2.20173 16.1726 2.00834 15.503 2.00834ZM10.1079 2.51319C7.24153 2.51319 4.91752 3.34115 4.91752 4.36234C4.91752 5.38354 7.24153 6.21112 10.1079 6.21112C12.9744 6.21112 15.2975 5.38354 15.2975 4.36234C15.2975 3.34115 12.9744 2.51319 10.1079 2.51319ZM10.1079 3.16209C11.9685 3.16209 13.477 3.69943 13.477 4.36234C13.477 5.02519 11.9685 5.5626 10.1079 5.5626C8.24718 5.5626 6.73891 5.02519 6.73891 4.36234C6.73891 3.69943 8.24718 3.16209 10.1079 3.16209Z" fill="#A1151A"/>
</svg>
