<svg width="20" height="7" viewBox="0 0 20 7" fill="none" xmlns="http://www.w3.org/2000/svg">
<path fill-rule="evenodd" clip-rule="evenodd" d="M3.19096 5.97298L3.20966 5.96632C2.20892 5.85969 1.26429 5.69642 0.385132 5.49983C0.68442 5.51649 0.993061 5.51982 1.32041 5.51982C2.24633 5.51982 3.12549 5.46651 3.94853 5.35988C4.75287 5.26325 5.5198 5.10998 6.19319 4.92339C5.34209 4.92339 4.54711 4.81343 3.89242 4.64349C3.26578 4.46356 2.77944 4.23365 2.52691 3.94709C2.75138 3.96375 3.0039 3.97375 3.25643 3.97375C3.63054 3.97375 3.94853 3.95376 4.30394 3.9271C3.40607 3.85713 2.62044 3.69053 2.04057 3.45062C1.48876 3.20071 1.14271 2.8975 1.14271 2.55763V2.53764C1.66646 2.64426 2.26504 2.70091 2.91973 2.7109C1.86287 2.461 1.18012 2.0345 1.18012 1.54468C1.18012 1.29478 1.37652 1.05154 1.70387 0.844953C2.68591 1.26479 3.88306 1.61132 5.25792 1.87122C6.63277 2.12113 8.16663 2.27774 9.79401 2.30439C9.74724 2.20776 9.70048 2.10114 9.70048 1.98451C9.70048 1.60133 10.1401 1.24813 10.8415 0.998227C11.571 0.738327 12.525 0.585052 13.6286 0.585052C14.7603 0.585052 15.7891 0.754987 16.4906 1.03155C17.3884 0.968239 18.2115 0.851617 18.9878 0.691678C18.6885 1.01156 18.0806 1.28478 17.2575 1.46471C18.0618 1.42806 18.8194 1.35142 19.5209 1.2448C18.9971 1.52136 18.3331 1.7646 17.5568 1.97119C17.5568 2.0245 17.5755 2.08781 17.5755 2.15112C17.5755 2.61427 17.3323 3.08076 16.846 3.55391C16.3596 4.02706 15.6395 4.45357 14.6949 4.83675C13.7502 5.21994 12.5811 5.53315 11.1876 5.77639C9.79401 6.01963 8.19468 6.13958 6.3896 6.13958C5.28598 6.13958 4.21976 6.07961 3.19096 5.97298Z" fill="#A1151A"/>
</svg>
