<svg width="115" height="43" viewBox="0 0 115 43" fill="none" xmlns="http://www.w3.org/2000/svg">
<path d="M37.8523 17.7039C38.5091 19.6738 37.9836 21.4092 39.56 23.0976C41.5304 25.0206 43.6321 26.9436 45.6026 28.8666C46.3907 29.5701 47.7043 29.8984 49.8061 30.1329C57.0309 30.7896 64.3872 31.54 70.5611 33.1347C73.7138 33.932 76.7351 34.7763 79.625 35.6674C82.515 36.5116 84.0913 37.7311 86.0617 38.8098C84.7481 39.6541 83.6972 40.4514 82.3836 41.2488C80.5445 42.3275 78.8369 42.5151 75.2901 42.3275C72.5315 42.1868 69.6416 42.093 67.0144 41.7178C63.0735 41.1549 59.6582 40.3576 56.7682 39.232C55.1919 38.5753 53.2215 37.9656 51.2511 37.4966C48.8866 36.9338 47.3102 36.2302 45.8653 35.4329C44.5517 34.6825 43.5008 33.8851 42.1872 33.1347C41.7931 32.9002 41.0049 32.5719 40.2168 32.525C35.225 32.1966 30.3647 31.7276 25.5043 31.0241C25.373 31.3055 25.2416 31.54 25.373 31.7276C25.7671 32.8533 26.1611 33.9789 26.5552 35.1515C27.0807 36.6523 29.1824 37.8249 32.2037 38.7629C35.4878 39.7948 36.0132 40.0293 32.9919 41.6709C31.4156 42.5151 30.102 42.6089 27.8688 41.9523C23.4026 40.7328 20.3813 39.232 19.8558 37.1214C19.3304 34.9639 18.1481 32.8533 17.36 30.6958C17.0972 30.0391 16.3091 29.6639 14.6014 29.3825C11.7114 28.9604 8.95286 28.4445 6.85109 27.6002C3.69843 26.3808 1.20257 25.0206 0.151682 23.379C0.0203216 23.1445 -0.111039 22.8162 0.151682 22.6286C2.1221 21.0339 3.96115 19.4393 8.55878 18.5012C11.4487 17.8915 12.7623 17.8915 14.9955 18.7826C16.9659 19.58 18.6736 20.4242 20.3813 21.2684C20.7753 21.4561 21.1694 21.7375 21.3008 21.972C21.9576 23.3321 22.7458 24.6923 23.1398 26.0525C23.4026 26.8498 23.928 27.3657 26.2925 27.6471C29.1824 27.9754 31.941 28.3976 34.831 28.7728C35.0937 28.8197 35.4878 28.7728 36.1446 28.8197C36.0132 28.4914 35.8818 28.2569 35.6191 28.0224C34.9623 27.3657 34.1742 26.6622 33.5173 26.0056C32.9919 25.4896 32.4665 24.9268 32.3351 24.4109C31.8097 22.7224 31.4156 21.0339 31.0215 19.3455C30.8901 18.5481 31.0215 17.7977 31.1529 17.0004C31.2842 16.4375 30.7588 16.1092 29.4452 15.7809C26.4239 14.9836 23.6653 14.0924 20.7753 13.2482C20.2499 13.0606 19.5931 12.9199 19.3304 12.6854C17.2286 11.2783 14.9955 9.91813 13.0251 8.46416C12.3682 7.94824 12.1055 7.33851 12.2369 6.77569C12.631 4.8996 15.3895 3.53944 19.8558 2.6014C21.6949 2.22618 23.5339 1.85096 25.2416 1.47575C26.9493 1.10053 28.7884 1.05363 30.496 1.42884C32.8605 1.94477 34.9623 2.55449 36.4073 3.39873C39.1659 4.9934 40.6108 6.72878 40.3481 8.51106C40.2168 9.77742 39.0345 10.9969 38.3777 12.2632C38.2463 12.4977 37.9836 12.7792 37.8523 13.0137C37.5895 13.6234 38.115 14.0455 39.56 14.4207C43.2381 15.3588 47.3102 15.9216 51.3824 16.4844C58.6073 17.4694 65.9635 18.5012 73.1883 19.4862C73.9765 19.58 74.896 19.6738 75.8156 19.7676C76.0783 19.3924 76.4724 19.1109 76.6037 18.8295C77.1292 17.657 77.5232 16.4844 77.9173 15.3119C78.0487 14.8898 78.0487 14.5145 76.6037 14.3738C71.3493 13.7172 67.6712 12.2632 63.4676 11.0438C59.6582 9.91813 57.1623 8.46416 55.586 6.86949C54.0096 5.27482 54.9292 3.72705 57.5564 2.36689C58.7386 1.75716 60.4463 1.28814 62.0227 0.819115C64.6499 0.115583 67.2771 0.209388 70.167 0.772213C75.2901 1.75716 77.6546 3.39873 79.625 5.18101C80.5445 5.97835 81.07 6.77569 81.8582 7.61992C83.3031 9.2146 83.0404 10.8562 83.4345 12.4977C83.4345 12.8261 83.5658 13.1544 83.5658 13.4827C86.0617 13.8579 88.5576 13.7641 90.9221 13.7641C95.651 13.7641 100.249 13.7172 104.978 13.7641C106.817 13.7641 108.656 13.9517 110.363 14.1393C112.071 14.3269 113.385 14.749 113.779 15.4526C113.122 15.4526 112.597 15.4995 112.071 15.4526C108.656 14.8429 104.978 14.6552 101.168 14.7021C96.4392 14.749 91.5789 14.6552 86.9812 15.0305C85.799 15.1243 84.4854 15.0305 82.909 15.0305C82.3836 16.672 80.9386 18.2198 81.3327 19.8614C81.4641 20.518 82.6463 20.6118 83.9599 20.8463C88.1635 21.503 92.6297 22.1127 96.7019 22.9569C103.139 24.2702 108.393 26.0994 113.647 27.9754C115.092 28.4914 115.487 29.1011 114.304 29.7577C113.779 30.0391 113.516 30.4144 113.122 30.7427C112.071 31.9152 109.838 32.6188 106.685 32.994C104.584 33.2754 102.35 33.5099 100.249 33.7913C97.8842 34.1196 95.6511 33.9789 93.2866 33.6506C88.2948 32.9471 84.7481 31.6338 82.1209 30.0391C78.8369 28.1162 76.7351 26.0056 76.341 23.7543C76.2096 23.0038 75.4215 22.6755 73.4511 22.4879C63.599 21.5499 54.141 20.2366 44.8144 18.7826C42.7126 18.2667 40.6108 18.0322 37.8523 17.7039ZM78.0487 12.4977C78.0487 11.7004 78.3114 10.9969 78.1801 10.2933C77.9173 8.32346 76.0783 6.54118 73.7138 4.75889C72.1375 3.58634 69.7729 2.7421 66.7516 2.08547C63.4676 1.33504 61.6286 1.61645 60.315 2.92971C58.4759 4.8996 60.0522 6.63498 63.2049 8.18275C66.883 9.91813 71.8747 11.1845 76.8664 12.4039C77.1292 12.4508 77.2605 12.4508 78.0487 12.4977ZM82.6463 23.5666C82.6463 23.8012 82.6463 23.9419 82.7777 24.0826C83.9599 25.1613 85.0108 26.287 86.5871 27.3188C88.4262 28.5852 91.0534 29.6639 94.2061 30.5082C96.9647 31.2586 99.986 31.5869 103.533 31.1648C104.978 30.9772 106.423 30.9303 107.736 30.7896C110.758 30.5082 111.546 29.8046 109.575 28.9135C108.524 28.4445 107.342 27.9285 105.897 27.6002C100.774 26.3339 95.5197 25.1144 89.7398 24.2702C87.638 23.895 85.4049 23.5197 82.6463 23.5666ZM32.4665 12.357C34.3055 11.7004 34.831 11.0438 34.5682 10.3402C34.4369 9.91813 34.3055 9.49601 34.3055 9.07389C34.3055 8.18275 33.6487 7.33851 32.3351 6.54118C31.5469 6.02525 30.6274 5.50933 29.7079 5.04031C28.3943 4.33677 26.5552 3.82085 24.4534 3.53944C22.3517 3.25803 20.9067 3.49254 20.1185 4.19607C18.9363 5.22792 18.9363 6.25976 20.5126 7.1978C22.6144 8.41726 24.7162 9.63671 27.212 10.7624C28.657 11.419 30.6274 11.8411 32.4665 12.357ZM77.6546 39.0913C74.6333 37.2152 60.4463 34.1196 55.0605 34.1196C58.2132 35.9957 72.5315 39.1382 77.6546 39.0913ZM8.55878 20.3304C8.29606 20.5649 7.90197 20.7056 7.77061 20.8932C6.98245 21.6906 7.77061 22.441 8.69014 23.1445C10.1351 24.2233 12.2369 25.0675 15.1268 25.7241C16.1777 24.2233 12.631 21.3153 8.55878 20.3304Z" fill="#D7B344"/>
</svg>
